<svg width="62" height="104" viewBox="0 0 62 104" fill="none" xmlns="http://www.w3.org/2000/svg">
<path d="M3.18454 92.3345C3.56387 92.1772 3.83793 92.0835 4.08933 91.9603C5.50365 91.2638 6.90097 90.5393 8.32241 89.8625C8.88424 89.5949 9.48008 89.3834 10.0845 89.2098C10.7269 89.0276 11.1344 89.1935 11.2782 89.6048C11.4606 90.127 11.0435 90.3407 10.6982 90.5781C10.6477 90.6134 10.5859 90.6459 10.5255 90.6728C8.0874 91.8873 5.66202 93.1228 3.20688 94.3093C1.74896 95.0129 1.02931 94.5614 1.13107 92.9812C1.28537 90.5069 1.51996 88.0464 2.09671 85.6282C2.1576 85.3806 2.22976 85.1358 2.32871 84.9036C2.54332 84.3954 2.91237 84.1341 3.28015 84.2424C3.78605 84.3967 3.91726 84.8109 3.90779 85.2382C3.89061 85.8426 3.82134 86.4402 3.74079 87.0351C3.54699 88.4792 3.32363 89.9221 3.13546 91.3677C3.09998 91.6335 3.16732 91.9186 3.19295 92.3247L3.18454 92.3345Z" fill="white"/>
<path d="M14.7417 79.5065C14.8299 79.3909 14.9724 79.1276 15.1884 78.9539C16.1127 78.2086 17.0569 77.48 17.9996 76.7571C18.1469 76.6441 18.3504 76.5211 18.5278 76.5289C18.8009 76.5364 19.1824 76.5646 19.3097 76.7272C19.4413 76.8968 19.3979 77.268 19.3003 77.4947C19.1972 77.7438 18.9701 77.9625 18.7471 78.1403C17.8872 78.818 17.0174 79.4873 16.1335 80.1411C15.93 80.288 15.6701 80.3972 15.4198 80.443C14.8333 80.5434 14.5251 80.1931 14.7347 79.5107L14.7417 79.5065Z" fill="white"/>
<path d="M52.539 8.02162C52.8124 8.12467 53.0167 8.16894 53.1818 8.27518C53.6686 8.57989 53.6412 9.08037 53.1327 9.3253C52.9838 9.3961 52.8179 9.43884 52.6562 9.46471C51.403 9.65181 50.1498 9.83891 48.898 10.0204C48.5632 10.0693 48.1834 10.1072 48.0242 9.73389C47.8679 9.37321 48.1229 9.1137 48.4093 8.94543C49.6854 8.17917 51.1031 7.93106 52.5376 8.02725L52.539 8.02162Z" fill="white"/>
<path d="M7.45135 86.8675C7.50859 86.7563 7.57096 86.527 7.72231 86.3732C8.41601 85.6666 9.12661 84.9642 9.85847 84.2968C10.0603 84.1077 10.3721 83.9577 10.6465 83.9356C10.9082 83.9164 11.2886 84.0219 11.4287 84.2056C11.5688 84.3892 11.5083 84.7324 11.4616 84.9954C11.4397 85.1332 11.2882 85.263 11.1619 85.3633C10.3934 86.0097 9.62487 86.6561 8.84358 87.2815C8.64437 87.4354 8.39435 87.5529 8.14413 87.6227C7.57477 87.7751 7.29922 87.5104 7.44432 86.8718L7.45135 86.8675Z" fill="white"/>
<path d="M43.793 41.8599C43.5795 41.6344 43.3001 41.4343 43.1624 41.1678C42.5099 39.9332 41.898 38.6787 41.2792 37.4285C41.2068 37.2854 41.147 37.1156 41.166 36.9651C41.1906 36.7682 41.2484 36.4602 41.3861 36.4105C41.5842 36.334 41.9067 36.3834 42.1014 36.491C42.3215 36.6167 42.4843 36.8537 42.6231 37.0668C43.391 38.2701 43.7414 39.6154 44.1199 40.9437C44.1899 41.1937 44.0884 41.485 44.0628 41.7592C43.9715 41.7904 43.8801 41.8216 43.7874 41.8585L43.793 41.8599Z" fill="white"/>
<path d="M38.2128 62.7279C38.3378 62.341 38.4291 61.9457 38.5866 61.5727C38.9907 60.6099 39.4159 59.6582 39.8412 58.7066C39.9583 58.449 40.0924 58.1955 40.2321 57.9434C40.3997 57.6505 40.6394 57.4051 41.0313 57.5611C41.3964 57.7046 41.4752 58.0403 41.4062 58.3694C41.3096 58.835 41.2738 59.3453 41.039 59.7411C40.5079 60.6369 39.9021 61.4964 39.2723 62.3321C39.0848 62.5843 38.7236 62.7163 38.4373 62.9085C38.3625 62.8483 38.2877 62.7881 38.2184 62.7293L38.2128 62.7279Z" fill="white"/>
<path d="M42.741 53.1122C42.6956 52.6893 42.6163 52.2581 42.6244 51.8364C42.6557 50.5671 42.7165 49.299 42.7717 48.0296C42.7822 47.8412 42.7715 47.6417 42.8271 47.4644C42.9562 47.0367 43.3527 46.9552 43.6554 47.3041C43.7996 47.4708 43.9188 47.6911 43.9745 47.9017C44.3838 49.5181 44.1299 51.0609 43.4775 52.5474C43.3715 52.7839 43.1414 52.966 42.9706 53.1746C42.8974 53.1566 42.8185 53.1372 42.7452 53.1192L42.741 53.1122Z" fill="white"/>
<path d="M23.31 74.8228C22.7184 74.7011 22.5639 74.4304 22.7606 74.0193C22.8429 73.8546 22.959 73.6743 23.1092 73.5739C23.9723 73.0045 24.844 72.449 25.734 71.916C25.9151 71.8114 26.1908 71.7598 26.4007 71.8055C26.6345 71.8511 26.9588 71.9905 27.0355 72.1645C27.1178 72.3399 27.0335 72.7071 26.8764 72.8355C25.9929 73.5849 25.0883 74.3232 23.9457 74.7165C23.704 74.8003 23.4295 74.7984 23.2987 74.82L23.31 74.8228Z" fill="white"/>
<path d="M30.6484 70.1827C30.9393 69.753 31.1025 69.4052 31.3632 69.1471C32.1466 68.3432 32.9497 67.5561 33.7811 66.7998C34.0349 66.5698 34.3776 66.3915 34.7177 66.2962C35.1943 66.1568 35.5011 66.4888 35.3763 66.9475C35.3472 67.0656 35.2859 67.1937 35.2032 67.2868C34.2102 68.433 33.1182 69.4713 31.6528 70.0836C31.4997 70.1474 31.3408 70.1859 31.1777 70.2174C31.0835 70.236 30.982 70.211 30.647 70.1883L30.6484 70.1827Z" fill="white"/>
<path d="M41.9981 15.186C42.0188 14.7614 41.9457 14.4272 42.0657 14.1822C42.4969 13.3036 42.9718 12.4418 43.4834 11.6009C43.6357 11.3459 43.9289 11.1256 44.207 10.9911C44.6888 10.7575 45.0629 11.0345 45.0412 11.5603C44.9948 12.5991 43.3219 14.7119 42.0037 15.1874L41.9981 15.186Z" fill="white"/>
<path d="M39.6042 22.5876C38.992 21.9178 39.2057 21.1946 39.2676 20.5296C39.3199 19.9039 39.5256 19.2862 39.6934 18.677C39.7502 18.4702 39.8675 18.2604 40.0189 18.1066C40.3776 17.7413 40.8707 17.8506 41.0261 18.3364C41.0945 18.5442 41.1138 18.7817 41.0739 18.9926C40.8877 19.8957 40.686 20.7889 40.4547 21.6808C40.3564 22.0803 40.1849 22.4618 39.6028 22.5932L39.6042 22.5876Z" fill="white"/>
<path d="M40.047 31.552C39.8503 31.2828 39.6877 31.1176 39.6081 30.9309C39.2141 29.9329 38.9579 28.9092 38.9493 27.8508C38.9505 27.8213 38.9406 27.789 38.9489 27.7552C38.9812 27.4051 38.9682 26.9962 39.4281 26.9243C39.926 26.8438 40.1556 27.2225 40.2922 27.5903C40.6994 28.7049 40.8223 29.8331 40.4555 30.9603C40.3916 31.1474 40.2289 31.2984 40.0456 31.5576L40.047 31.552Z" fill="white"/>
<path d="M61.687 10.0446C60.5731 10.5643 58.0692 10.1753 56.9961 9.36241C57.6285 8.78392 58.4437 8.87103 59.1407 8.95292C60.0222 9.06229 61.0132 9.11505 61.6884 10.0389L61.687 10.0446Z" fill="white"/>
</svg>
